<svg width="192" height="18" viewBox="0 0 192 18" fill="none" xmlns="http://www.w3.org/2000/svg">
<path fill-rule="evenodd" clip-rule="evenodd" d="M8.70983 0.234387C9.75195 0.234454 10.6467 0.383128 11.3938 0.679245C12.1587 0.958323 12.7854 1.35253 13.2721 1.85836C13.7761 2.36412 14.1491 2.9488 14.3924 3.61148C14.6357 4.27417 14.7595 4.99843 14.7595 5.78315C14.7594 6.86417 14.532 7.85003 14.0802 8.7393C13.6456 9.61105 12.9768 10.3089 12.0731 10.832C11.1867 11.3378 10.0654 11.5901 8.70983 11.5902H4.58851V15.6466C4.58838 16.3962 4.39874 16.9812 4.01644 17.3997C3.65153 17.8006 3.08598 17.9998 2.32167 18C1.57477 18 1.00046 17.8002 0.600678 17.3997C0.200999 16.9812 0.000141353 16.3962 0 15.6466V2.59022C0 1.82276 0.200857 1.23827 0.600678 0.837098C1.01784 0.436284 1.60073 0.234387 2.34789 0.234387H8.70983ZM4.58851 8.03136H7.66579C8.60398 8.03136 9.29949 7.84065 9.75148 7.45735C10.2206 7.0738 10.4568 6.51523 10.457 5.78315C10.457 5.32965 10.351 4.93544 10.1424 4.60404C9.95115 4.27308 9.64628 4.01125 9.22946 3.81956C8.81244 3.62803 8.29105 3.53255 7.66579 3.53255H4.58851V8.03136Z" fill="#0F0D0B"/>
<path d="M178.89 0C179.637 7.11641e-05 180.211 0.217232 180.611 0.652936C181.011 1.0714 181.209 1.66531 181.209 2.43237V7.0388L187.574 0.942333C187.921 0.611065 188.303 0.373889 188.72 0.234387C189.154 0.0949812 189.581 0.0795441 189.998 0.184162C190.328 0.23652 190.615 0.376017 190.858 0.602711C191.119 0.811959 191.302 1.08232 191.406 1.4135C191.51 1.74448 191.502 2.10183 191.38 2.48499C191.276 2.85127 191.031 3.22775 190.648 3.61148L185.791 8.3949L191.406 14.5464C191.737 14.9301 191.926 15.3155 191.979 15.6992C192.03 16.0649 191.989 16.4134 191.85 16.7444C191.711 17.0757 191.51 17.3459 191.249 17.5551C190.988 17.7469 190.719 17.8687 190.441 17.9211C189.954 17.9734 189.493 17.9137 189.059 17.7393C188.641 17.5474 188.18 17.1798 187.676 16.6391L182.644 11.2769L181.209 12.6378V15.5676C181.209 16.3175 181.011 16.9111 180.611 17.3471C180.229 17.7829 179.655 17.9999 178.89 18C178.143 18 177.569 17.7828 177.169 17.3471C176.769 16.9111 176.568 16.3175 176.568 15.5676V2.43237C176.568 1.66531 176.769 1.0714 177.169 0.652936C177.569 0.217408 178.143 0 178.89 0Z" fill="#0F0D0B"/>
<path d="M69.967 0.234387C70.558 0.234397 71.0193 0.39168 71.3495 0.705554C71.6797 1.00194 71.8452 1.4386 71.8453 2.01382C71.8453 2.60656 71.6795 3.06076 71.3495 3.3747C71.0193 3.67121 70.5581 3.81955 69.967 3.81956H63.0831V6.90725H69.3664C69.9574 6.90725 70.4186 7.06448 70.7489 7.37842C71.0792 7.67494 71.2447 8.11109 71.2447 8.68669C71.2446 9.27952 71.0791 9.73368 70.7489 10.0476C70.4186 10.3437 69.957 10.4924 69.3664 10.4924H63.0831V14.1804H69.967C70.5581 14.1805 71.0193 14.3377 71.3495 14.6516C71.6796 14.9481 71.8453 15.3845 71.8453 15.9599C71.8453 16.5528 71.6798 17.0068 71.3495 17.3208C71.0193 17.6173 70.5581 17.7656 69.967 17.7656H61.1023C60.32 17.7656 59.7198 17.564 59.3026 17.1629C58.9028 16.7443 58.702 16.1421 58.702 15.3572V2.64284C58.702 1.85793 58.9028 1.26458 59.3026 0.863407C59.7198 0.444924 60.3201 0.234387 61.1023 0.234387H69.967Z" fill="#0F0D0B"/>
<path d="M121.291 0C122.024 0.0064632 122.744 0.355678 123.198 1.00452L131.084 13.9006C131.829 14.9679 131.571 16.4395 130.508 17.1868C129.444 17.9336 127.977 17.6748 127.232 16.608C124.551 12.05 117.959 12.05 115.277 16.608C114.532 17.6746 113.066 17.9339 112.002 17.1868C110.939 16.4395 110.681 14.9679 111.425 13.9006L119.312 1.00452C119.766 0.355097 120.487 0.006189 121.222 0H121.291Z" fill="#C28D2A"/>
</svg>
